<svg xmlns="http://www.w3.org/2000/svg" width="640" height="360" viewBox="0 0 640 360">
<defs>
  <linearGradient id="body" x1="0" y1="0" x2="0" y2="1"><stop offset="0" stop-color="#f7f9fb"/><stop offset="0.32" stop-color="#cfd6dc"/><stop offset="0.72" stop-color="#929da6"/><stop offset="1" stop-color="#5c6670"/></linearGradient>
  <linearGradient id="glass" x1="0" y1="0" x2="0" y2="1"><stop offset="0" stop-color="#263746"/><stop offset="1" stop-color="#06090c"/></linearGradient>
  <linearGradient id="black" x1="0" y1="0" x2="0" y2="1"><stop offset="0" stop-color="#222931"/><stop offset="1" stop-color="#050607"/></linearGradient>
  <linearGradient id="metal" x1="0" y1="0" x2="1" y2="0"><stop offset="0" stop-color="#111418"/><stop offset=".5" stop-color="#42484f"/><stop offset="1" stop-color="#111418"/></linearGradient>
  <filter id="glow"><feGaussianBlur stdDeviation="5" result="b"/><feMerge><feMergeNode in="b"/><feMergeNode in="SourceGraphic"/></feMerge></filter>
  <filter id="shadow"><feDropShadow dx="0" dy="12" stdDeviation="12" flood-color="#000" flood-opacity=".55"/></filter>
</defs>

<g filter="url(#shadow)">
 <ellipse cx="320" cy="316" rx="232" ry="23" fill="#000" opacity=".34"/>
 <g fill="#090b0d"><rect x="77" y="177" width="50" height="113" rx="22"/><rect x="513" y="177" width="50" height="113" rx="22"/></g>
 <path d="M98 259 L88 160 Q95 103 166 76 Q231 52 320 52 Q409 52 474 76 Q545 103 552 160 L542 259 Q496 304 414 319 L226 319 Q144 304 98 259Z" fill="url(#body)" stroke="#3f4850" stroke-width="5"/>
 <path d="M174 111 L220 68 Q320 52 420 68 L466 111 L438 147 L202 147Z" fill="url(#glass)" stroke="#11181f" stroke-width="5"/>
 <g filter="url(#glow)" fill="#ff3b39" stroke="#ff6a63" stroke-width="3"><circle cx="158" cy="185" r="27"/><circle cx="219" cy="185" r="20"/><circle cx="421" cy="185" r="20"/><circle cx="482" cy="185" r="27"/></g>
 <path d="M118 229 L224 224 L251 247 L389 247 L416 224 L522 229 L502 294 L424 309 L216 309 L138 294Z" fill="#090b0e"/>
 <g fill="#2a2e33" stroke="#6b7178" stroke-width="3"><circle cx="164" cy="280" r="16"/><circle cx="224" cy="280" r="16"/><circle cx="416" cy="280" r="16"/><circle cx="476" cy="280" r="16"/></g>
 <rect x="279" y="218" width="82" height="32" rx="5" fill="#0d1115" stroke="#6f7881" stroke-width="3"/>
 <text x="320" y="240" text-anchor="middle" fill="#e8eef2" font-size="16" font-family="Arial" font-weight="700">GT-R</text>
 <g fill="#14171a"><rect x="119" y="51" width="402" height="17" rx="8"/><rect x="150" y="48" width="20" height="61" rx="6"/><rect x="470" y="48" width="20" height="61" rx="6"/></g>
 <path d="M111 123 Q160 86 214 70" fill="none" stroke="#fff" stroke-opacity=".42" stroke-width="6"/>
</g>

</svg>